HIERARCHY
ROOT pelvis
{
  OFFSET 0 100 0
  CHANNELS 6 Xposition Yposition Zposition Zrotation Xrotation Yrotation
  JOINT pelvis_right_femur
  {
    OFFSET -10.78128 -3.44521 -0.5502486
    CHANNELS 3 Zrotation Xrotation Yrotation
    JOINT right_femur_tibia
    {
      OFFSET -0.8047443 -44.0398 -0.1307829
      CHANNELS 3 Zrotation Xrotation Yrotation
      JOINT right_tibia_foot
      {
        OFFSET 3.006224 -47.83518 -5
        CHANNELS 3 Zrotation Xrotation Yrotation
        End Site
        {
          OFFSET 0 -5 15
        }
      }
    }
  }
  JOINT pelvis_left_femur
  {
    OFFSET 10.78128 -3.44521 -0.5502486
    CHANNELS 3 Zrotation Xrotation Yrotation
    JOINT left_femur_tibia
    {
      OFFSET 0.8047443 -44.0398 -0.1307829
      CHANNELS 3 Zrotation Xrotation Yrotation
      JOINT left_tibia_foot
      {
        OFFSET -4.370144 -48.10324 -4.275266
        CHANNELS 3 Zrotation Xrotation Yrotation
        End Site
        {
          OFFSET 0 -5 15
        }
      }
    }
  }
  JOINT pelvis_spine1
  {
    OFFSET 0 6.468898 -3.129235
    CHANNELS 3 Zrotation Xrotation Yrotation
    JOINT spine1
    {
      OFFSET 0 23.15396 4.99043
      CHANNELS 3 Zrotation Xrotation Yrotation
      JOINT spine2
      {
        OFFSET 0 20.79997 -5.064912
        CHANNELS 3 Zrotation Xrotation Yrotation
        JOINT neck
        {
          OFFSET 0 14.38658 9.616178
          CHANNELS 3 Zrotation Xrotation Yrotation
          End Site
          {
            OFFSET 0 20 0
          }
        }
      }
      JOINT right_manubrium
      {
        OFFSET -5.722621 16.35077 3.967754
        CHANNELS 3 Zrotation Xrotation Yrotation
        JOINT right_clavicle
        {
          OFFSET -13.16364 1.694482 -4.693211
          CHANNELS 3 Zrotation Xrotation Yrotation
          JOINT right_humerus
          {
            OFFSET -28.5034 -0.3100689 -2.792744
            CHANNELS 3 Zrotation Xrotation Yrotation
            JOINT right_radius
            {
              OFFSET -25.15693 0.02248979 -1.271978
              CHANNELS 3 Zrotation Xrotation Yrotation
              End Site
              {
                OFFSET -15 0 0
              }
            }
          }
        }
      }
      JOINT left_manubrium
      {
        OFFSET 5.722621 16.35077 3.967754
        CHANNELS 3 Zrotation Xrotation Yrotation
        JOINT left_clavicle
        {
          OFFSET 13.16364 1.694482 -4.693211
          CHANNELS 3 Zrotation Xrotation Yrotation
          JOINT left_humerus
          {
            OFFSET 29.39168 -1.063119 -2.237045
            CHANNELS 3 Zrotation Xrotation Yrotation
            JOINT left_radius
            {
              OFFSET 24.59957 -0.9528479 0.9047498
              CHANNELS 3 Zrotation Xrotation Yrotation
              End Site
              {
                OFFSET 15 -0 -0
              }
            }
          }
        }
      }
    }
  }
}
MOTION
Frames: 13
Frame Time: 0.0416666666667
1835.877 104.0369 2314.869 8.806115 -1.691379 73.43433 0.8843111 -11.93539 3.009417 -0 47.04083 -0 -1.23721 0.5842615 -7.552436 -5.268964 6.517862 -8.84556 -0 14.85497 -0 -3.307874 -16.24114 16.01593 -2.20063 0.6600013 2.945687 -0.2127803 10.31123 -6.575392 1.77903 23.01993 5.969967 1.416408 -17.68084 8.242821 -0.1365222 -17.5919 9.977384 91.06091 22.42537 -16.68189 -0 0 14.16244 -21.85159 10.78196 11.93838 4.493148 -19.17079 -4.978622 -85.48738 25.41173 12.41783 0 0 -17.86943 -0.02364739 6.497625 14.34813
1841.156 103.7849 2316.175 7.661455 -1.718505 74.43048 1.14857 -18.1482 2.784617 -0 40.42814 -0 -1.790323 -0.7724245 -7.737827 -5.005098 10.63439 -9.510417 -0 13.05667 -0 -4.276658 -18.05067 14.79052 -1.780251 0.7151176 2.430245 0.1942993 9.924677 -7.364283 1.773565 22.7158 6.321881 1.710326 -17.96558 8.485926 -0.005979293 -16.8687 9.844231 91.41619 22.97946 -18.63292 -0 0 13.43288 -21.00992 11.3421 10.9482 5.204329 -20.33535 -5.109745 -84.555 25.9654 10.31057 0 0 -20.52292 0.2633168 7.576134 13.90809
1846.43 103.1931 2317.491 5.674832 -1.487272 75.22842 1.471366 -23.85401 2.681243 -0 32.35592 -0 -1.817007 -1.828954 -7.550516 -4.774634 13.73666 -10.13533 -0 12.57482 -0 -5.504137 -19.65472 13.33668 -1.534769 0.6314273 2.340358 0.6472346 9.452544 -8.068741 1.727349 22.02025 6.862286 2.294522 -18.5034 8.734535 0.9411693 -16.03065 9.830601 91.04065 25.22816 -20.5691 -0 0 12.84655 -20.29476 12.77425 9.886342 6.075611 -21.40036 -4.868828 -84.06387 26.28395 9.061021 0 0 -22.98417 0.7339577 8.742152 13.26142
1851.896 102.3189 2318.878 3.786489 -1.015266 75.89899 1.664447 -27.70642 2.506584 -0 23.96705 -0 -1.425482 -2.302971 -7.338769 -4.699132 15.77214 -10.32626 -0 13.49719 -0 -6.414988 -20.63133 12.16218 -1.603826 0.4825972 2.474067 1.061551 9.016492 -8.517607 1.70931 21.30327 7.26384 2.842379 -18.91203 8.858462 2.071405 -15.13395 9.876177 90.64582 27.95273 -22.19146 -0 0 11.93613 -19.90408 14.35714 9.161811 6.88064 -22.17512 -4.456158 -83.53327 26.05452 7.892146 0 0 -25.04359 1.378835 9.344981 12.34633
1857.742 101.2111 2320.417 2.97607 -0.4548619 76.50469 1.547103 -28.76457 2.163797 -0 17.03613 -0 -0.7612131 -2.243849 -7.484701 -4.758568 17.05054 -9.830477 -0 15.58698 -0 -6.658323 -20.50771 11.57748 -1.91657 0.262971 2.567771 1.345466 8.791705 -8.666009 1.735283 20.92751 7.299557 3.024624 -18.84454 8.777125 2.674688 -14.3186 9.9616 90.80682 29.53757 -23.3245 -0 0 10.47512 -20.21154 15.50762 9.128002 7.338341 -22.60223 -4.221531 -82.55175 24.97818 6.164932 0 0 -26.62069 2.114918 9.055619 11.17833
1864.059 100.0515 2322.156 3.220898 -0.07088606 77.0437 1.469864 -27.62162 2.071101 -0 13.07342 -0 -0.01690255 -2.158337 -7.99712 -4.734915 18.02011 -8.924799 -0 19.01966 -0 -6.472111 -18.99352 11.40802 -2.156331 -0.1045197 2.48932 1.519785 8.837915 -8.687128 1.750099 20.8879 7.041525 2.829337 -18.42 8.542895 2.702597 -13.67482 10.1028 91.46036 29.68143 -24.11055 -0 0 8.762262 -20.94814 16.18424 9.505749 7.333932 -22.73556 -4.24203 -81.32883 23.28003 4.210569 0 0 -27.77107 2.894339 8.20967 9.856803
1870.791 99.1925 2324.108 3.664399 -0.1119525 77.4401 2.13129 -25.62624 2.793346 -0 12.34679 -0 0.3749933 -2.459533 -8.448784 -4.383024 18.67283 -8.283534 -0 24.66719 -0 -6.453951 -16.158 11.39124 -1.98592 -0.6117575 2.306048 1.671125 9.041099 -8.713639 1.731124 20.95375 6.691174 2.520807 -18.1577 8.273361 2.655471 -13.21909 10.26922 92.13429 29.40049 -24.73608 -0 0 7.271105 -21.03099 16.49034 9.548225 6.980219 -22.59217 -4.209611 -80.58786 21.93984 3.146824 0 0 -28.41574 3.612868 7.513423 8.781296
1877.747 98.9813 2326.239 3.757375 -0.6785119 77.56564 3.781227 -23.33772 4.258739 -0 13.9559 -0 -0.01220253 -2.993216 -8.383796 -3.652012 18.34007 -8.304467 -0 33.09089 -0 -7.10298 -12.5204 11.57913 -1.29805 -1.048223 2.202044 1.807138 9.287443 -8.655443 1.723077 21.0356 6.383133 2.367116 -18.4171 8.031277 2.901307 -13.00288 10.41399 92.40946 29.49406 -25.08384 -0 0 6.277396 -19.81035 16.34801 8.895509 6.468506 -22.19382 -3.86835 -80.9451 21.96575 3.859476 0 0 -28.22857 3.963638 7.492608 8.609322
1884.667 99.56815 2328.448 3.788026 -1.555016 77.30119 5.748304 -20.10914 5.637214 -0 16.27254 -0 -1.10121 -3.464637 -7.68248 -2.87818 16.04191 -8.636425 -0 43.37732 -0 -8.333904 -9.08239 12.28638 -0.3872137 -1.077044 2.419344 1.854838 9.578572 -8.329436 1.776601 21.25516 6.151343 2.474177 -19.03962 7.800457 3.377601 -13.14348 10.543 92.05213 29.82755 -24.72353 -0 0 5.917173 -17.94758 15.63356 7.952428 5.913004 -21.63436 -3.353336 -82.60486 23.37852 6.332491 0 0 -26.7689 3.621144 8.078012 9.628953
1891.312 100.777 2330.568 4.541311 -2.183248 76.63613 6.767414 -14.9468 6.081874 -0 17.4464 -0 -2.135457 -4.170087 -6.730705 -2.590151 11.23821 -8.481606 -0 52.82493 -0 -9.231722 -6.96478 13.68995 0.122689 -0.5299854 3.186408 1.726001 9.973576 -7.637337 1.917145 21.74814 5.921228 2.709285 -19.3682 7.544192 3.697538 -13.73659 10.71681 91.04095 29.65065 -23.27884 -0 0 6.428019 -16.99969 14.59502 7.493911 5.330322 -21.01109 -3.100689 -85.05783 24.86514 9.511945 0 0 -23.94053 2.688555 8.598886 11.11727
1897.523 102.1841 2332.472 6.050543 -2.182593 75.73833 6.433585 -8.455812 5.897363 -0 16.91658 -0 -2.543674 -5.865668 -5.972349 -2.741232 4.530838 -7.778092 -0 58.57133 -0 -9.115886 -6.36971 15.17226 -0.02565015 0.3205769 4.471245 1.36329 10.38401 -6.641772 2.114614 22.35719 5.638321 2.849835 -18.95332 7.305744 3.653972 -14.72052 10.95993 89.5516 28.7713 -20.93787 -0 0 8.19062 -17.54553 13.88011 7.767817 4.798743 -20.30097 -3.220285 -87.37252 25.1991 12.43773 0 0 -20.57003 1.761563 8.661948 11.99456
1903.292 103.3756 2334.142 7.216666 -1.776479 74.8355 5.623148 -2.619157 5.890948 -0 15.73018 -0 -2.66124 -8.553535 -5.284429 -2.735179 -2.850556 -7.182433 -0 59.64166 -0 -8.658837 -6.481798 15.87615 -0.3795802 1.065137 5.854402 0.8199193 10.52419 -5.518782 2.246251 22.77702 5.404856 2.843348 -18.24264 7.157916 3.427262 -15.89859 11.19339 87.77871 27.98304 -18.2244 -0 0 11.06681 -18.42942 13.64961 8.384797 4.543904 -19.43074 -3.21431 -89.35724 24.88375 15.37193 0 0 -17.85983 1.11437 8.563161 12.40056
1908.79 104.0567 2335.648 7.516236 -1.364214 74.04474 5.021491 2.004477 5.983994 -0 14.51926 -0 -2.526625 -11.17745 -4.469084 -2.235569 -9.955714 -6.615784 -0 56.43402 -0 -8.490159 -6.748492 16.14533 -0.5983488 1.584034 6.925397 0.2661552 10.3204 -4.48584 2.212903 22.95571 5.351607 2.765767 -17.82538 7.096115 3.070904 -17.10601 11.36144 85.92506 27.626 -15.44141 -0 0 14.1914 -19.16946 13.51101 9.183828 4.664811 -18.50439 -2.871619 -91.11525 24.70935 18.30511 0 0 -16.16546 0.5833121 8.343658 12.9101
